# xmcd
#
# Track frame offsets: 
#        150
#        14235
#        27726
#        38283
#        49203
#        61421
#        72170
#        85671
#        94953
#        107648
#        120197
#        133808
#        145986
#        157884
#        169812
#        181756
#        192100
#        203553
#        214825
#        229679
#
# Disc length: 3275 seconds
#
# Revision: 2
# Processed by: cddbd v1.5.2PL0 Copyright (c) Steve Scherf et al.
# Submitted via: ExactAudioCopy v1.1
#
DISCID=110cc914
DTITLE=Eddie Floyd - The Platinum Collection
DYEAR=2007
DGENRE=R&B
TTITLE0=Knock On Wood (stereo)
TTITLE1=634-5789 (stereo)
TTITLE2=Raise Your Hand (stereo)
TTITLE3=Love Is A Doggone Gone Thing (mono)
TTITLE4=On A Saturday Night (mono)
TTITLE5=Things Get Better (mono)
TTITLE6=Big Bird (mono)
TTITLE7=Don't Rock The Boat (mono)
TTITLE8=But It's Alright (stereo)
TTITLE9=I Don't Want To Cry (stereo)
TTITLE10=Something You Got (stereo)
TTITLE11=If You Gotta Make A Fool Of Somebody (stereo)
TTITLE12=Got To Make A Comeback (stereo)
TTITLE13=I've Just Been Feeling Bad (stereo)
TTITLE14=High Heel Sneakers (stereo)
TTITLE15=Hey Now (mono)
TTITLE16=Holding On With Both Hands (mono)
TTITLE17=This House (mono)
TTITLE18=I Stand Accused (stereo)
TTITLE19=Warm And Tender Love (stereo)
EXTD=
EXTT0=1966
EXTT1=1966
EXTT2=1966
EXTT3=1966
EXTT4=1966
EXTT5=1966
EXTT6=1968
EXTT7=1966
EXTT8=1966
EXTT9=1966
EXTT10=1966
EXTT11=1966
EXTT12=1966
EXTT13=1966
EXTT14=1966
EXTT15=1967
EXTT16=1968
EXTT17=1967
EXTT18=1966
EXTT19=1966
PLAYORDER=
